<?xml version="1.0" encoding="UTF-8"?>
<svg version="1.1" xmlns="http://www.w3.org/2000/svg" width="512" height="512" viewBox="0 0 512 512">
<path d="M0 0 C168.96 0 337.92 0 512 0 C512 168.96 512 337.92 512 512 C343.04 512 174.08 512 0 512 C0 343.04 0 174.08 0 0 Z " fill="#FFFFFF" transform="translate(0,0)"/>
<path d="M0 0 C29.04 0 58.08 0 88 0 C88 5.61 88 11.22 88 17 C76.45 17 64.9 17 53 17 C53 28.88 53 40.76 53 53 C64.55 53 76.1 53 88 53 C88 47.06 88 41.12 88 35 C99.55 35 111.1 35 123 35 C123 23.45 123 11.9 123 0 C134.88 0 146.76 0 159 0 C159 122.43 159 244.86 159 371 C89.04 371 19.08 371 -53 371 C-53 359.12 -53 347.24 -53 335 C-58.94 335 -64.88 335 -71 335 C-71 311.9 -71 288.8 -71 265 C-65.06 265 -59.12 265 -53 265 C-53 259.06 -53 253.12 -53 247 C-58.94 247 -64.88 247 -71 247 C-71 235.45 -71 223.9 -71 212 C-76.94 212 -82.88 212 -89 212 C-89 223.55 -89 235.1 -89 247 C-100.55 247 -112.1 247 -124 247 C-124 241.06 -124 235.12 -124 229 C-118.06 229 -112.12 229 -106 229 C-106 217.45 -106 205.9 -106 194 C-111.94 194 -117.88 194 -124 194 C-124 199.94 -124 205.88 -124 212 C-141.49 212 -158.98 212 -177 212 C-177 206.06 -177 200.12 -177 194 C-194.49 194 -211.98 194 -230 194 C-230 188.06 -230 182.12 -230 176 C-241.55 176 -253.1 176 -265 176 C-265 164.45 -265 152.9 -265 141 C-259.39 141 -253.78 141 -248 141 C-248 146.94 -248 152.88 -248 159 C-230.51 159 -213.02 159 -195 159 C-195 164.61 -195 170.22 -195 176 C-183.12 176 -171.24 176 -159 176 C-159 170.39 -159 164.78 -159 159 C-164.94 159 -170.88 159 -177 159 C-177 153.06 -177 147.12 -177 141 C-159.51 141 -142.02 141 -124 141 C-124 152.55 -124 164.1 -124 176 C-118.06 176 -112.12 176 -106 176 C-106 170.39 -106 164.78 -106 159 C-100.39 159 -94.78 159 -89 159 C-89 170.55 -89 182.1 -89 194 C-77.12 194 -65.24 194 -53 194 C-53 188.06 -53 182.12 -53 176 C-58.94 176 -64.88 176 -71 176 C-71 158.51 -71 141.02 -71 123 C-65.06 123 -59.12 123 -53 123 C-53 117.39 -53 111.78 -53 106 C-58.94 106 -64.88 106 -71 106 C-71 88.51 -71 71.02 -71 53 C-65.06 53 -59.12 53 -53 53 C-53 41.12 -53 29.24 -53 17 C-47.39 17 -41.78 17 -36 17 C-36 22.94 -36 28.88 -36 35 C-30.06 35 -24.12 35 -18 35 C-18 29.06 -18 23.12 -18 17 C-12.06 17 -6.12 17 0 17 C0 11.39 0 5.78 0 0 Z " fill="#FFFFFF" transform="translate(353,141)"/>
<path d="M0 0 C23.1 0 46.2 0 70 0 C70 5.61 70 11.22 70 17 C81.88 17 93.76 17 106 17 C106 11.39 106 5.78 106 0 C117.55 0 129.1 0 141 0 C141 11.55 141 23.1 141 35 C129.45 35 117.9 35 106 35 C106 40.94 106 46.88 106 53 C117.55 53 129.1 53 141 53 C141 58.61 141 64.22 141 70 C152.55 70 164.1 70 176 70 C176 58.45 176 46.9 176 35 C170.39 35 164.78 35 159 35 C159 29.06 159 23.12 159 17 C170.55 17 182.1 17 194 17 C194 22.94 194 28.88 194 35 C199.94 35 205.88 35 212 35 C212 29.06 212 23.12 212 17 C223.55 17 235.1 17 247 17 C247 28.88 247 40.76 247 53 C252.94 53 258.88 53 265 53 C265 58.61 265 64.22 265 70 C259.06 70 253.12 70 247 70 C247 87.49 247 104.98 247 123 C252.94 123 258.88 123 265 123 C265 128.94 265 134.88 265 141 C253.12 141 241.24 141 229 141 C229 129.45 229 117.9 229 106 C223.39 106 217.78 106 212 106 C212 111.61 212 117.22 212 123 C206.06 123 200.12 123 194 123 C194 111.45 194 99.9 194 88 C176.51 88 159.02 88 141 88 C141 93.94 141 99.88 141 106 C146.94 106 152.88 106 159 106 C159 111.61 159 117.22 159 123 C147.12 123 135.24 123 123 123 C123 117.39 123 111.78 123 106 C105.51 106 88.02 106 70 106 C70 100.06 70 94.12 70 88 C64.39 88 58.78 88 53 88 C53 99.55 53 111.1 53 123 C64.55 123 76.1 123 88 123 C88 128.94 88 134.88 88 141 C105.49 141 122.98 141 141 141 C141 146.94 141 152.88 141 159 C158.49 159 175.98 159 194 159 C194 153.06 194 147.12 194 141 C199.94 141 205.88 141 212 141 C212 152.55 212 164.1 212 176 C206.06 176 200.12 176 194 176 C194 181.94 194 187.88 194 194 C205.55 194 217.1 194 229 194 C229 182.45 229 170.9 229 159 C234.94 159 240.88 159 247 159 C247 170.55 247 182.1 247 194 C252.94 194 258.88 194 265 194 C265 199.94 265 205.88 265 212 C259.06 212 253.12 212 247 212 C247 235.1 247 258.2 247 282 C252.94 282 258.88 282 265 282 C265 293.88 265 305.76 265 318 C166 318 67 318 -35 318 C-35 230.55 -35 143.1 -35 53 C-29.39 53 -23.78 53 -18 53 C-18 41.12 -18 29.24 -18 17 C-12.06 17 -6.12 17 0 17 C0 11.39 0 5.78 0 0 Z " fill="#FFFFFF" transform="translate(35,194)"/>
<path d="M0 0 C23.1 0 46.2 0 70 0 C70 5.61 70 11.22 70 17 C81.88 17 93.76 17 106 17 C106 11.39 106 5.78 106 0 C117.55 0 129.1 0 141 0 C141 11.55 141 23.1 141 35 C129.45 35 117.9 35 106 35 C106 40.94 106 46.88 106 53 C117.55 53 129.1 53 141 53 C141 58.61 141 64.22 141 70 C152.55 70 164.1 70 176 70 C176 58.45 176 46.9 176 35 C170.39 35 164.78 35 159 35 C159 29.06 159 23.12 159 17 C170.55 17 182.1 17 194 17 C194 22.94 194 28.88 194 35 C199.94 35 205.88 35 212 35 C212 29.06 212 23.12 212 17 C223.55 17 235.1 17 247 17 C247 28.88 247 40.76 247 53 C252.94 53 258.88 53 265 53 C265 58.61 265 64.22 265 70 C259.06 70 253.12 70 247 70 C247 87.49 247 104.98 247 123 C252.94 123 258.88 123 265 123 C265 128.94 265 134.88 265 141 C253.12 141 241.24 141 229 141 C229 129.45 229 117.9 229 106 C223.39 106 217.78 106 212 106 C212 111.61 212 117.22 212 123 C206.06 123 200.12 123 194 123 C194 111.45 194 99.9 194 88 C176.51 88 159.02 88 141 88 C141 93.94 141 99.88 141 106 C146.94 106 152.88 106 159 106 C159 111.61 159 117.22 159 123 C147.12 123 135.24 123 123 123 C123 117.39 123 111.78 123 106 C105.51 106 88.02 106 70 106 C70 100.06 70 94.12 70 88 C64.39 88 58.78 88 53 88 C53 99.55 53 111.1 53 123 C64.55 123 76.1 123 88 123 C88 128.94 88 134.88 88 141 C105.49 141 122.98 141 141 141 C141 146.94 141 152.88 141 159 C129.45 159 117.9 159 106 159 C106 164.61 106 170.22 106 176 C88.51 176 71.02 176 53 176 C53 170.39 53 164.78 53 159 C35.51 159 18.02 159 0 159 C0 153.06 0 147.12 0 141 C-11.55 141 -23.1 141 -35 141 C-35 111.96 -35 82.92 -35 53 C-29.39 53 -23.78 53 -18 53 C-18 41.12 -18 29.24 -18 17 C-12.06 17 -6.12 17 0 17 C0 11.39 0 5.78 0 0 Z " fill="#000000" transform="translate(35,194)"/>
<path d="M0 0 C5.61 0 11.22 0 17 0 C17 5.94 17 11.88 17 18 C34.49 18 51.98 18 70 18 C70 23.61 70 29.22 70 35 C81.88 35 93.76 35 106 35 C106 29.39 106 23.78 106 18 C100.06 18 94.12 18 88 18 C88 12.06 88 6.12 88 0 C105.49 0 122.98 0 141 0 C141 11.55 141 23.1 141 35 C146.94 35 152.88 35 159 35 C159 29.39 159 23.78 159 18 C164.61 18 170.22 18 176 18 C176 29.55 176 41.1 176 53 C187.88 53 199.76 53 212 53 C212 47.06 212 41.12 212 35 C217.61 35 223.22 35 229 35 C229 29.39 229 23.78 229 18 C234.94 18 240.88 18 247 18 C247 29.55 247 41.1 247 53 C241.06 53 235.12 53 229 53 C229 58.94 229 64.88 229 71 C234.94 71 240.88 71 247 71 C247 76.61 247 82.22 247 88 C252.94 88 258.88 88 265 88 C265 99.88 265 111.76 265 124 C259.06 124 253.12 124 247 124 C247 118.06 247 112.12 247 106 C241.06 106 235.12 106 229 106 C229 117.55 229 129.1 229 141 C234.94 141 240.88 141 247 141 C247 146.94 247 152.88 247 159 C252.94 159 258.88 159 265 159 C265 164.94 265 170.88 265 177 C270.61 177 276.22 177 282 177 C282 182.61 282 188.22 282 194 C287.94 194 293.88 194 300 194 C300 182.45 300 170.9 300 159 C305.94 159 311.88 159 318 159 C318 164.94 318 170.88 318 177 C323.61 177 329.22 177 335 177 C335 194.49 335 211.98 335 230 C294.41 230 253.82 230 212 230 C212 218.12 212 206.24 212 194 C206.06 194 200.12 194 194 194 C194 170.9 194 147.8 194 124 C199.94 124 205.88 124 212 124 C212 118.06 212 112.12 212 106 C206.06 106 200.12 106 194 106 C194 94.45 194 82.9 194 71 C188.06 71 182.12 71 176 71 C176 82.55 176 94.1 176 106 C164.45 106 152.9 106 141 106 C141 100.06 141 94.12 141 88 C146.94 88 152.88 88 159 88 C159 76.45 159 64.9 159 53 C153.06 53 147.12 53 141 53 C141 58.94 141 64.88 141 71 C123.51 71 106.02 71 88 71 C88 65.06 88 59.12 88 53 C70.51 53 53.02 53 35 53 C35 47.06 35 41.12 35 35 C23.45 35 11.9 35 0 35 C0 23.45 0 11.9 0 0 Z " fill="#FFFFFF" transform="translate(88,282)"/>
<path d="M0 0 C5.61 0 11.22 0 17 0 C17 11.55 17 23.1 17 35 C22.94 35 28.88 35 35 35 C35 23.45 35 11.9 35 0 C46.55 0 58.1 0 70 0 C70 17.49 70 34.98 70 53 C58.45 53 46.9 53 35 53 C35 58.94 35 64.88 35 71 C58.43 71 81.86 71 106 71 C106 76.61 106 82.22 106 88 C111.61 88 117.22 88 123 88 C123 93.94 123 99.88 123 106 C111.45 106 99.9 106 88 106 C88 117.55 88 129.1 88 141 C93.94 141 99.88 141 106 141 C106 146.94 106 152.88 106 159 C111.61 159 117.22 159 123 159 C123 164.94 123 170.88 123 177 C111.45 177 99.9 177 88 177 C88 182.61 88 188.22 88 194 C93.94 194 99.88 194 106 194 C106 205.88 106 217.76 106 230 C94.12 230 82.24 230 70 230 C70 212.51 70 195.02 70 177 C64.39 177 58.78 177 53 177 C53 171.06 53 165.12 53 159 C47.06 159 41.12 159 35 159 C35 170.55 35 182.1 35 194 C29.06 194 23.12 194 17 194 C17 188.39 17 182.78 17 177 C11.39 177 5.78 177 0 177 C0 171.06 0 165.12 0 159 C-5.94 159 -11.88 159 -18 159 C-18 153.06 -18 147.12 -18 141 C-23.94 141 -29.88 141 -36 141 C-36 129.45 -36 117.9 -36 106 C-30.06 106 -24.12 106 -18 106 C-18 111.94 -18 117.88 -18 124 C-12.06 124 -6.12 124 0 124 C0 112.12 0 100.24 0 88 C-5.94 88 -11.88 88 -18 88 C-18 82.39 -18 76.78 -18 71 C-23.94 71 -29.88 71 -36 71 C-36 65.06 -36 59.12 -36 53 C-30.06 53 -24.12 53 -18 53 C-18 41.45 -18 29.9 -18 18 C-12.06 18 -6.12 18 0 18 C0 12.06 0 6.12 0 0 Z " fill="#000000" transform="translate(353,282)"/>
<path d="M0 0 C64.02 0 128.04 0 194 0 C194 5.61 194 11.22 194 17 C188.06 17 182.12 17 176 17 C176 22.94 176 28.88 176 35 C187.88 35 199.76 35 212 35 C212 40.61 212 46.22 212 52 C200.12 52 188.24 52 176 52 C176 57.94 176 63.88 176 70 C170.39 70 164.78 70 159 70 C159 58.45 159 46.9 159 35 C153.06 35 147.12 35 141 35 C141 46.55 141 58.1 141 70 C135.06 70 129.12 70 123 70 C123 75.94 123 81.88 123 88 C117.39 88 111.78 88 106 88 C106 82.06 106 76.12 106 70 C100.06 70 94.12 70 88 70 C88 64.06 88 58.12 88 52 C76.45 52 64.9 52 53 52 C53 57.94 53 63.88 53 70 C58.61 70 64.22 70 70 70 C70 81.55 70 93.1 70 105 C75.94 105 81.88 105 88 105 C88 116.88 88 128.76 88 141 C76.45 141 64.9 141 53 141 C53 152.55 53 164.1 53 176 C41.12 176 29.24 176 17 176 C17 170.06 17 164.12 17 158 C11.39 158 5.78 158 0 158 C0 128.96 0 99.92 0 70 C11.55 70 23.1 70 35 70 C35 58.45 35 46.9 35 35 C23.45 35 11.9 35 0 35 C0 23.45 0 11.9 0 0 Z " fill="#000000" transform="translate(141,0)"/>
<path d="M0 0 C40.59 0 81.18 0 123 0 C123 40.92 123 81.84 123 124 C82.41 124 41.82 124 0 124 C0 83.08 0 42.16 0 0 Z " fill="#FFFFFF" transform="translate(0,388)"/>
<path d="M0 0 C40.92 0 81.84 0 124 0 C124 40.59 124 81.18 124 123 C83.08 123 42.16 123 0 123 C0 82.41 0 41.82 0 0 Z " fill="#FFFFFF" transform="translate(388,0)"/>
<path d="M0 0 C40.59 0 81.18 0 123 0 C123 40.59 123 81.18 123 123 C82.41 123 41.82 123 0 123 C0 82.41 0 41.82 0 0 Z " fill="#FFFFFF" transform="translate(0,0)"/>
<path d="M0 0 C17.49 0 34.98 0 53 0 C53 40.59 53 81.18 53 123 C93.92 123 134.84 123 177 123 C177 128.94 177 134.88 177 141 C165.12 141 153.24 141 141 141 C141 152.55 141 164.1 141 176 C129.45 176 117.9 176 106 176 C106 181.94 106 187.88 106 194 C94.45 194 82.9 194 71 194 C71 182.12 71 170.24 71 158 C82.55 158 94.1 158 106 158 C106 152.39 106 146.78 106 141 C76.96 141 47.92 141 18 141 C18 146.61 18 152.22 18 158 C12.06 158 6.12 158 0 158 C0 163.94 0 169.88 0 176 C-5.94 176 -11.88 176 -18 176 C-18 170.06 -18 164.12 -18 158 C-23.61 158 -29.22 158 -35 158 C-35 140.51 -35 123.02 -35 105 C-29.39 105 -23.78 105 -18 105 C-18 110.94 -18 116.88 -18 123 C-12.06 123 -6.12 123 0 123 C0 105.51 0 88.02 0 70 C-5.94 70 -11.88 70 -18 70 C-18 64.06 -18 58.12 -18 52 C-6.12 52 5.76 52 18 52 C18 46.39 18 40.78 18 35 C6.12 35 -5.76 35 -18 35 C-18 29.06 -18 23.12 -18 17 C-12.06 17 -6.12 17 0 17 C0 11.39 0 5.78 0 0 Z " fill="#FFFFFF" transform="translate(335,0)"/>
<path d="M0 0 C5.94 0 11.88 0 18 0 C18 11.55 18 23.1 18 35 C12.06 35 6.12 35 0 35 C0 40.94 0 46.88 0 53 C11.55 53 23.1 53 35 53 C35 41.45 35 29.9 35 18 C40.94 18 46.88 18 53 18 C53 29.55 53 41.1 53 53 C58.94 53 64.88 53 71 53 C71 58.94 71 64.88 71 71 C65.06 71 59.12 71 53 71 C53 94.1 53 117.2 53 141 C47.06 141 41.12 141 35 141 C35 135.39 35 129.78 35 124 C23.45 124 11.9 124 0 124 C0 112.12 0 100.24 0 88 C-11.55 88 -23.1 88 -35 88 C-35 99.88 -35 111.76 -35 124 C-40.94 124 -46.88 124 -53 124 C-53 112.12 -53 100.24 -53 88 C-64.55 88 -76.1 88 -88 88 C-88 82.39 -88 76.78 -88 71 C-82.39 71 -76.78 71 -71 71 C-71 65.06 -71 59.12 -71 53 C-65.06 53 -59.12 53 -53 53 C-53 58.94 -53 64.88 -53 71 C-41.45 71 -29.9 71 -18 71 C-18 59.12 -18 47.24 -18 35 C-29.55 35 -41.1 35 -53 35 C-53 29.39 -53 23.78 -53 18 C-35.51 18 -18.02 18 0 18 C0 12.06 0 6.12 0 0 Z " fill="#000000" transform="translate(229,335)"/>
<path d="M0 0 C11.88 0 23.76 0 36 0 C36 46.86 36 93.72 36 142 C18.51 142 1.02 142 -17 142 C-17 130.12 -17 118.24 -17 106 C-22.94 106 -28.88 106 -35 106 C-35 100.39 -35 94.78 -35 89 C-23.45 89 -11.9 89 0 89 C0 83.06 0 77.12 0 71 C-5.61 71 -11.22 71 -17 71 C-17 65.06 -17 59.12 -17 53 C-22.94 53 -28.88 53 -35 53 C-35 41.45 -35 29.9 -35 18 C-23.45 18 -11.9 18 0 18 C0 12.06 0 6.12 0 0 Z " fill="#FFFFFF" transform="translate(476,370)"/>
<path d="M0 0 C40.59 0 81.18 0 123 0 C123 40.92 123 81.84 123 124 C82.41 124 41.82 124 0 124 C0 83.08 0 42.16 0 0 Z M17 18 C17 47.04 17 76.08 17 106 C46.04 106 75.08 106 105 106 C105 76.96 105 47.92 105 18 C75.96 18 46.92 18 17 18 Z " fill="#000000" transform="translate(0,388)"/>
<path d="M0 0 C40.92 0 81.84 0 124 0 C124 40.59 124 81.18 124 123 C83.08 123 42.16 123 0 123 C0 82.41 0 41.82 0 0 Z M18 17 C18 46.04 18 75.08 18 105 C47.04 105 76.08 105 106 105 C106 75.96 106 46.92 106 17 C76.96 17 47.92 17 18 17 Z " fill="#000000" transform="translate(388,0)"/>
<path d="M0 0 C40.59 0 81.18 0 123 0 C123 40.59 123 81.18 123 123 C82.41 123 41.82 123 0 123 C0 82.41 0 41.82 0 0 Z M17 17 C17 46.04 17 75.08 17 105 C46.04 105 75.08 105 105 105 C105 75.96 105 46.92 105 17 C75.96 17 46.92 17 17 17 Z " fill="#000000" transform="translate(0,0)"/>
<path d="M0 0 C29.04 0 58.08 0 88 0 C88 5.61 88 11.22 88 17 C76.45 17 64.9 17 53 17 C53 22.94 53 28.88 53 35 C47.06 35 41.12 35 35 35 C35 29.06 35 23.12 35 17 C29.06 17 23.12 17 17 17 C17 28.88 17 40.76 17 53 C22.94 53 28.88 53 35 53 C35 58.61 35 64.22 35 70 C23.45 70 11.9 70 0 70 C0 75.94 0 81.88 0 88 C5.61 88 11.22 88 17 88 C17 93.94 17 99.88 17 106 C11.39 106 5.78 106 0 106 C0 111.61 0 117.22 0 123 C-5.94 123 -11.88 123 -18 123 C-18 105.51 -18 88.02 -18 70 C-23.94 70 -29.88 70 -36 70 C-36 64.39 -36 58.78 -36 53 C-41.61 53 -47.22 53 -53 53 C-53 41.12 -53 29.24 -53 17 C-47.39 17 -41.78 17 -36 17 C-36 22.94 -36 28.88 -36 35 C-30.06 35 -24.12 35 -18 35 C-18 29.06 -18 23.12 -18 17 C-12.06 17 -6.12 17 0 17 C0 11.39 0 5.78 0 0 Z " fill="#000000" transform="translate(353,141)"/>
<path d="M0 0 C5.94 0 11.88 0 18 0 C18 11.55 18 23.1 18 35 C29.55 35 41.1 35 53 35 C53 40.94 53 46.88 53 53 C70.49 53 87.98 53 106 53 C106 58.94 106 64.88 106 71 C94.45 71 82.9 71 71 71 C71 76.61 71 82.22 71 88 C53.51 88 36.02 88 18 88 C18 82.39 18 76.78 18 71 C0.51 71 -16.98 71 -35 71 C-35 65.06 -35 59.12 -35 53 C-29.39 53 -23.78 53 -18 53 C-18 47.06 -18 41.12 -18 35 C-12.06 35 -6.12 35 0 35 C0 23.45 0 11.9 0 0 Z " fill="#000000" transform="translate(70,282)"/>
<path d="M0 0 C11.55 0 23.1 0 35 0 C35 11.88 35 23.76 35 36 C40.94 36 46.88 36 53 36 C53 41.61 53 47.22 53 53 C47.06 53 41.12 53 35 53 C35 70.49 35 87.98 35 106 C40.94 106 46.88 106 53 106 C53 111.94 53 117.88 53 124 C41.12 124 29.24 124 17 124 C17 112.45 17 100.9 17 89 C11.39 89 5.78 89 0 89 C0 94.61 0 100.22 0 106 C-5.94 106 -11.88 106 -18 106 C-18 94.45 -18 82.9 -18 71 C-12.06 71 -6.12 71 0 71 C0 65.06 0 59.12 0 53 C5.61 53 11.22 53 17 53 C17 41.45 17 29.9 17 18 C11.39 18 5.78 18 0 18 C0 12.06 0 6.12 0 0 Z " fill="#000000" transform="translate(247,211)"/>
<path d="M0 0 C17.49 0 34.98 0 53 0 C53 17.49 53 34.98 53 53 C35.51 53 18.02 53 0 53 C0 35.51 0 18.02 0 0 Z " fill="#000000" transform="translate(35,423)"/>
<path d="M0 0 C17.49 0 34.98 0 53 0 C53 17.49 53 34.98 53 53 C35.51 53 18.02 53 0 53 C0 35.51 0 18.02 0 0 Z " fill="#FFFFFF" transform="translate(370,370)"/>
<path d="M0 0 C17.49 0 34.98 0 53 0 C53 17.49 53 34.98 53 53 C35.51 53 18.02 53 0 53 C0 35.51 0 18.02 0 0 Z " fill="#000000" transform="translate(423,35)"/>
<path d="M0 0 C17.49 0 34.98 0 53 0 C53 17.49 53 34.98 53 53 C35.51 53 18.02 53 0 53 C0 35.51 0 18.02 0 0 Z " fill="#000000" transform="translate(35,35)"/>
<path d="M0 0 C11.55 0 23.1 0 35 0 C35 5.61 35 11.22 35 17 C46.88 17 58.76 17 71 17 C71 28.88 71 40.76 71 53 C53.51 53 36.02 53 18 53 C18 41.12 18 29.24 18 17 C12.06 17 6.12 17 0 17 C0 11.39 0 5.78 0 0 Z " fill="#FFFFFF" transform="translate(441,459)"/>
<path d="M0 0 C5.94 0 11.88 0 18 0 C18 5.94 18 11.88 18 18 C23.61 18 29.22 18 35 18 C35 35.49 35 52.98 35 71 C23.45 71 11.9 71 0 71 C0 65.06 0 59.12 0 53 C-5.94 53 -11.88 53 -18 53 C-18 47.06 -18 41.12 -18 35 C-12.06 35 -6.12 35 0 35 C0 23.45 0 11.9 0 0 Z " fill="#FFFFFF" transform="translate(388,441)"/>
<path d="M0 0 C5.94 0 11.88 0 18 0 C18 17.49 18 34.98 18 53 C12.06 53 6.12 53 0 53 C0 47.06 0 41.12 0 35 C-5.61 35 -11.22 35 -17 35 C-17 52.49 -17 69.98 -17 88 C-22.94 88 -28.88 88 -35 88 C-35 64.9 -35 41.8 -35 18 C-23.45 18 -11.9 18 0 18 C0 12.06 0 6.12 0 0 Z " fill="#000000" transform="translate(317,70)"/>
<path d="M0 0 C11.55 0 23.1 0 35 0 C35 5.61 35 11.22 35 17 C29.06 17 23.12 17 17 17 C17 22.94 17 28.88 17 35 C28.88 35 40.76 35 53 35 C53 40.61 53 46.22 53 52 C41.12 52 29.24 52 17 52 C17 57.94 17 63.88 17 70 C11.39 70 5.78 70 0 70 C0 58.45 0 46.9 0 35 C-5.94 35 -11.88 35 -18 35 C-18 29.06 -18 23.12 -18 17 C-12.06 17 -6.12 17 0 17 C0 11.39 0 5.78 0 0 Z " fill="#000000" transform="translate(300,0)"/>
<path d="M0 0 C11.55 0 23.1 0 35 0 C35 5.61 35 11.22 35 17 C46.55 17 58.1 17 70 17 C70 28.88 70 40.76 70 53 C58.45 53 46.9 53 35 53 C35 47.06 35 41.12 35 35 C29.06 35 23.12 35 17 35 C17 29.06 17 23.12 17 17 C11.39 17 5.78 17 0 17 C0 11.39 0 5.78 0 0 Z " fill="#FFFFFF" transform="translate(141,353)"/>
<path d="M0 0 C11.88 0 23.76 0 36 0 C36 5.61 36 11.22 36 17 C30.06 17 24.12 17 18 17 C18 22.94 18 28.88 18 35 C12.06 35 6.12 35 0 35 C0 40.61 0 46.22 0 52 C-5.61 52 -11.22 52 -17 52 C-17 46.39 -17 40.78 -17 35 C-22.94 35 -28.88 35 -35 35 C-35 29.06 -35 23.12 -35 17 C-23.45 17 -11.9 17 0 17 C0 11.39 0 5.78 0 0 Z " fill="#FFFFFF" transform="translate(264,0)"/>
<path d="M0 0 C5.61 0 11.22 0 17 0 C17 5.94 17 11.88 17 18 C22.94 18 28.88 18 35 18 C35 23.94 35 29.88 35 36 C11.57 36 -11.86 36 -36 36 C-36 30.06 -36 24.12 -36 18 C-24.12 18 -12.24 18 0 18 C0 12.06 0 6.12 0 0 Z " fill="#000000" transform="translate(353,476)"/>
<path d="M0 0 C11.88 0 23.76 0 36 0 C36 17.49 36 34.98 36 53 C30.06 53 24.12 53 18 53 C18 47.06 18 41.12 18 35 C12.06 35 6.12 35 0 35 C0 23.45 0 11.9 0 0 Z " fill="#000000" transform="translate(476,141)"/>
<path d="M0 0 C11.88 0 23.76 0 36 0 C36 5.94 36 11.88 36 18 C30.06 18 24.12 18 18 18 C18 23.94 18 29.88 18 36 C12.06 36 6.12 36 0 36 C0 41.61 0 47.22 0 53 C-5.61 53 -11.22 53 -17 53 C-17 41.45 -17 29.9 -17 18 C-11.39 18 -5.78 18 0 18 C0 12.06 0 6.12 0 0 Z " fill="#FFFFFF" transform="translate(52,211)"/>
<path d="M0 0 C5.61 0 11.22 0 17 0 C17 5.61 17 11.22 17 17 C22.94 17 28.88 17 35 17 C35 28.88 35 40.76 35 53 C23.45 53 11.9 53 0 53 C0 35.51 0 18.02 0 0 Z " fill="#000000" transform="translate(141,459)"/>
<path d="M0 0 C5.94 0 11.88 0 18 0 C18 17.49 18 34.98 18 53 C12.06 53 6.12 53 0 53 C0 47.06 0 41.12 0 35 C-11.55 35 -23.1 35 -35 35 C-35 29.39 -35 23.78 -35 18 C-23.45 18 -11.9 18 0 18 C0 12.06 0 6.12 0 0 Z " fill="#000000" transform="translate(494,282)"/>
<path d="M0 0 C17.16 0 34.32 0 52 0 C52 5.61 52 11.22 52 17 C57.94 17 63.88 17 70 17 C70 22.94 70 28.88 70 35 C58.45 35 46.9 35 35 35 C35 29.06 35 23.12 35 17 C23.45 17 11.9 17 0 17 C0 11.39 0 5.78 0 0 Z " fill="#000000" transform="translate(0,141)"/>
<path d="M0 0 C5.94 0 11.88 0 18 0 C18 11.88 18 23.76 18 36 C0.51 36 -16.98 36 -35 36 C-35 30.06 -35 24.12 -35 18 C-23.45 18 -11.9 18 0 18 C0 12.06 0 6.12 0 0 Z " fill="#000000" transform="translate(229,476)"/>
<path d="M0 0 C5.94 0 11.88 0 18 0 C18 17.49 18 34.98 18 53 C12.06 53 6.12 53 0 53 C0 47.39 0 41.78 0 36 C-5.94 36 -11.88 36 -18 36 C-18 30.06 -18 24.12 -18 18 C-12.06 18 -6.12 18 0 18 C0 12.06 0 6.12 0 0 Z " fill="#000000" transform="translate(494,211)"/>
<path d="M0 0 C5.94 0 11.88 0 18 0 C18 5.94 18 11.88 18 18 C23.61 18 29.22 18 35 18 C35 23.94 35 29.88 35 36 C29.39 36 23.78 36 18 36 C18 41.61 18 47.22 18 53 C12.06 53 6.12 53 0 53 C0 35.51 0 18.02 0 0 Z " fill="#000000" transform="translate(335,211)"/>
<path d="M0 0 C11.88 0 23.76 0 36 0 C36 5.61 36 11.22 36 17 C30.06 17 24.12 17 18 17 C18 28.88 18 40.76 18 53 C12.06 53 6.12 53 0 53 C0 35.51 0 18.02 0 0 Z " fill="#FFFFFF" transform="translate(158,88)"/>
<path d="M0 0 C5.94 0 11.88 0 18 0 C18 17.49 18 34.98 18 53 C6.45 53 -5.1 53 -17 53 C-17 47.39 -17 41.78 -17 36 C-11.39 36 -5.78 36 0 36 C0 24.12 0 12.24 0 0 Z " fill="#FFFFFF" transform="translate(17,264)"/>
<path d="M0 0 C11.55 0 23.1 0 35 0 C35 5.94 35 11.88 35 18 C29.39 18 23.78 18 18 18 C18 23.61 18 29.22 18 35 C6.12 35 -5.76 35 -18 35 C-18 29.39 -18 23.78 -18 18 C-12.06 18 -6.12 18 0 18 C0 12.06 0 6.12 0 0 Z " fill="#000000" transform="translate(441,176)"/>
<path d="M0 0 C5.61 0 11.22 0 17 0 C17 11.55 17 23.1 17 35 C11.39 35 5.78 35 0 35 C0 40.94 0 46.88 0 53 C-5.94 53 -11.88 53 -18 53 C-18 41.45 -18 29.9 -18 18 C-12.06 18 -6.12 18 0 18 C0 12.06 0 6.12 0 0 Z " fill="#FFFFFF" transform="translate(247,229)"/>
<path d="M0 0 C5.94 0 11.88 0 18 0 C18 5.94 18 11.88 18 18 C23.61 18 29.22 18 35 18 C35 23.94 35 29.88 35 36 C23.45 36 11.9 36 0 36 C0 24.12 0 12.24 0 0 Z " fill="#000000" transform="translate(388,211)"/>
<path d="M0 0 C5.94 0 11.88 0 18 0 C18 11.55 18 23.1 18 35 C6.12 35 -5.76 35 -18 35 C-18 29.39 -18 23.78 -18 18 C-12.06 18 -6.12 18 0 18 C0 12.06 0 6.12 0 0 Z " fill="#000000" transform="translate(494,441)"/>
<path d="M0 0 C5.94 0 11.88 0 18 0 C18 11.88 18 23.76 18 36 C12.06 36 6.12 36 0 36 C0 24.12 0 12.24 0 0 Z " fill="#000000" transform="translate(282,476)"/>
<path d="M0 0 C5.94 0 11.88 0 18 0 C18 11.88 18 23.76 18 36 C12.06 36 6.12 36 0 36 C0 24.12 0 12.24 0 0 Z " fill="#000000" transform="translate(494,370)"/>
<path d="M0 0 C5.94 0 11.88 0 18 0 C18 11.88 18 23.76 18 36 C12.06 36 6.12 36 0 36 C0 24.12 0 12.24 0 0 Z " fill="#000000" transform="translate(317,264)"/>
<path d="M0 0 C5.94 0 11.88 0 18 0 C18 11.88 18 23.76 18 36 C12.06 36 6.12 36 0 36 C0 24.12 0 12.24 0 0 Z " fill="#FFFFFF" transform="translate(282,158)"/>
<path d="M0 0 C5.94 0 11.88 0 18 0 C18 11.88 18 23.76 18 36 C12.06 36 6.12 36 0 36 C0 24.12 0 12.24 0 0 Z " fill="#000000" transform="translate(264,158)"/>
<path d="M0 0 C11.55 0 23.1 0 35 0 C35 5.94 35 11.88 35 18 C23.45 18 11.9 18 0 18 C0 12.06 0 6.12 0 0 Z " fill="#FFFFFF" transform="translate(0,335)"/>
<path d="M0 0 C11.55 0 23.1 0 35 0 C35 5.94 35 11.88 35 18 C23.45 18 11.9 18 0 18 C0 12.06 0 6.12 0 0 Z " fill="#000000" transform="translate(0,317)"/>
<path d="M0 0 C5.94 0 11.88 0 18 0 C18 11.55 18 23.1 18 35 C12.06 35 6.12 35 0 35 C0 23.45 0 11.9 0 0 Z " fill="#FFFFFF" transform="translate(52,282)"/>
<path d="M0 0 C5.61 0 11.22 0 17 0 C17 11.88 17 23.76 17 36 C11.39 36 5.78 36 0 36 C0 24.12 0 12.24 0 0 Z " fill="#FFFFFF" transform="translate(0,211)"/>
<path d="M0 0 C5.61 0 11.22 0 17 0 C17 11.88 17 23.76 17 36 C11.39 36 5.78 36 0 36 C0 24.12 0 12.24 0 0 Z " fill="#000000" transform="translate(247,105)"/>
<path d="M0 0 C11.88 0 23.76 0 36 0 C36 5.61 36 11.22 36 17 C24.12 17 12.24 17 0 17 C0 11.39 0 5.78 0 0 Z " fill="#FFFFFF" transform="translate(158,0)"/>
<path d="M0 0 C11.55 0 23.1 0 35 0 C35 5.61 35 11.22 35 17 C23.45 17 11.9 17 0 17 C0 11.39 0 5.78 0 0 Z " fill="#000000" transform="translate(0,353)"/>
<path d="M0 0 C11.55 0 23.1 0 35 0 C35 5.61 35 11.22 35 17 C23.45 17 11.9 17 0 17 C0 11.39 0 5.78 0 0 Z " fill="#000000" transform="translate(88,141)"/>
<path d="M0 0 C5.94 0 11.88 0 18 0 C18 5.94 18 11.88 18 18 C12.06 18 6.12 18 0 18 C0 12.06 0 6.12 0 0 Z " fill="#000000" transform="translate(494,494)"/>
<path d="M0 0 C5.94 0 11.88 0 18 0 C18 5.94 18 11.88 18 18 C12.06 18 6.12 18 0 18 C0 12.06 0 6.12 0 0 Z " fill="#FFFFFF" transform="translate(476,441)"/>
<path d="M0 0 C5.94 0 11.88 0 18 0 C18 5.94 18 11.88 18 18 C12.06 18 6.12 18 0 18 C0 12.06 0 6.12 0 0 Z " fill="#000000" transform="translate(317,441)"/>
<path d="M0 0 C5.94 0 11.88 0 18 0 C18 5.94 18 11.88 18 18 C12.06 18 6.12 18 0 18 C0 12.06 0 6.12 0 0 Z " fill="#000000" transform="translate(476,423)"/>
<path d="M0 0 C5.94 0 11.88 0 18 0 C18 5.94 18 11.88 18 18 C12.06 18 6.12 18 0 18 C0 12.06 0 6.12 0 0 Z " fill="#FFFFFF" transform="translate(317,423)"/>
<path d="M0 0 C5.94 0 11.88 0 18 0 C18 5.94 18 11.88 18 18 C12.06 18 6.12 18 0 18 C0 12.06 0 6.12 0 0 Z " fill="#000000" transform="translate(388,388)"/>
<path d="M0 0 C5.94 0 11.88 0 18 0 C18 5.94 18 11.88 18 18 C12.06 18 6.12 18 0 18 C0 12.06 0 6.12 0 0 Z " fill="#FFFFFF" transform="translate(105,335)"/>
<path d="M0 0 C5.94 0 11.88 0 18 0 C18 5.94 18 11.88 18 18 C12.06 18 6.12 18 0 18 C0 12.06 0 6.12 0 0 Z " fill="#000000" transform="translate(441,317)"/>
<path d="M0 0 C5.94 0 11.88 0 18 0 C18 5.94 18 11.88 18 18 C12.06 18 6.12 18 0 18 C0 12.06 0 6.12 0 0 Z " fill="#FFFFFF" transform="translate(105,264)"/>
<path d="M0 0 C5.94 0 11.88 0 18 0 C18 5.94 18 11.88 18 18 C12.06 18 6.12 18 0 18 C0 12.06 0 6.12 0 0 Z " fill="#FFFFFF" transform="translate(70,264)"/>
<path d="M0 0 C5.94 0 11.88 0 18 0 C18 5.94 18 11.88 18 18 C12.06 18 6.12 18 0 18 C0 12.06 0 6.12 0 0 Z " fill="#FFFFFF" transform="translate(105,229)"/>
<path d="M0 0 C5.94 0 11.88 0 18 0 C18 5.94 18 11.88 18 18 C12.06 18 6.12 18 0 18 C0 12.06 0 6.12 0 0 Z " fill="#000000" transform="translate(105,176)"/>
<path d="M0 0 C5.94 0 11.88 0 18 0 C18 5.94 18 11.88 18 18 C12.06 18 6.12 18 0 18 C0 12.06 0 6.12 0 0 Z " fill="#000000" transform="translate(229,158)"/>
<path d="M0 0 C5.94 0 11.88 0 18 0 C18 5.94 18 11.88 18 18 C12.06 18 6.12 18 0 18 C0 12.06 0 6.12 0 0 Z " fill="#000000" transform="translate(123,158)"/>
<path d="M0 0 C5.61 0 11.22 0 17 0 C17 5.94 17 11.88 17 18 C11.39 18 5.78 18 0 18 C0 12.06 0 6.12 0 0 Z " fill="#000000" transform="translate(300,423)"/>
<path d="M0 0 C5.94 0 11.88 0 18 0 C18 5.61 18 11.22 18 17 C12.06 17 6.12 17 0 17 C0 11.39 0 5.78 0 0 Z " fill="#FFFFFF" transform="translate(229,406)"/>
<path d="M0 0 C5.61 0 11.22 0 17 0 C17 5.94 17 11.88 17 18 C11.39 18 5.78 18 0 18 C0 12.06 0 6.12 0 0 Z " fill="#000000" transform="translate(141,370)"/>
<path d="M0 0 C5.94 0 11.88 0 18 0 C18 5.61 18 11.22 18 17 C12.06 17 6.12 17 0 17 C0 11.39 0 5.78 0 0 Z " fill="#000000" transform="translate(476,353)"/>
<path d="M0 0 C5.61 0 11.22 0 17 0 C17 5.94 17 11.88 17 18 C11.39 18 5.78 18 0 18 C0 12.06 0 6.12 0 0 Z " fill="#FFFFFF" transform="translate(353,317)"/>
<path d="M0 0 C5.61 0 11.22 0 17 0 C17 5.94 17 11.88 17 18 C11.39 18 5.78 18 0 18 C0 12.06 0 6.12 0 0 Z " fill="#000000" transform="translate(194,317)"/>
<path d="M0 0 C5.61 0 11.22 0 17 0 C17 5.94 17 11.88 17 18 C11.39 18 5.78 18 0 18 C0 12.06 0 6.12 0 0 Z " fill="#FFFFFF" transform="translate(35,317)"/>
<path d="M0 0 C5.61 0 11.22 0 17 0 C17 5.94 17 11.88 17 18 C11.39 18 5.78 18 0 18 C0 12.06 0 6.12 0 0 Z " fill="#FFFFFF" transform="translate(141,264)"/>
<path d="M0 0 C5.94 0 11.88 0 18 0 C18 5.61 18 11.22 18 17 C12.06 17 6.12 17 0 17 C0 11.39 0 5.78 0 0 Z " fill="#000000" transform="translate(423,247)"/>
<path d="M0 0 C5.61 0 11.22 0 17 0 C17 5.94 17 11.88 17 18 C11.39 18 5.78 18 0 18 C0 12.06 0 6.12 0 0 Z " fill="#000000" transform="translate(300,229)"/>
<path d="M0 0 C5.94 0 11.88 0 18 0 C18 5.61 18 11.22 18 17 C12.06 17 6.12 17 0 17 C0 11.39 0 5.78 0 0 Z " fill="#FFFFFF" transform="translate(335,194)"/>
<path d="M0 0 C5.94 0 11.88 0 18 0 C18 5.61 18 11.22 18 17 C12.06 17 6.12 17 0 17 C0 11.39 0 5.78 0 0 Z " fill="#000000" transform="translate(282,194)"/>
<path d="M0 0 C5.61 0 11.22 0 17 0 C17 5.94 17 11.88 17 18 C11.39 18 5.78 18 0 18 C0 12.06 0 6.12 0 0 Z " fill="#000000" transform="translate(406,176)"/>
<path d="M0 0 C5.61 0 11.22 0 17 0 C17 5.94 17 11.88 17 18 C11.39 18 5.78 18 0 18 C0 12.06 0 6.12 0 0 Z " fill="#000000" transform="translate(194,176)"/>
<path d="M0 0 C5.61 0 11.22 0 17 0 C17 5.94 17 11.88 17 18 C11.39 18 5.78 18 0 18 C0 12.06 0 6.12 0 0 Z " fill="#000000" transform="translate(353,105)"/>
<path d="M0 0 C5.61 0 11.22 0 17 0 C17 5.94 17 11.88 17 18 C11.39 18 5.78 18 0 18 C0 12.06 0 6.12 0 0 Z " fill="#FFFFFF" transform="translate(194,105)"/>
<path d="M0 0 C5.61 0 11.22 0 17 0 C17 5.94 17 11.88 17 18 C11.39 18 5.78 18 0 18 C0 12.06 0 6.12 0 0 Z " fill="#000000" transform="translate(353,52)"/>
<path d="M0 0 C5.61 0 11.22 0 17 0 C17 5.94 17 11.88 17 18 C11.39 18 5.78 18 0 18 C0 12.06 0 6.12 0 0 Z " fill="#000000" transform="translate(353,17)"/>
<path d="M0 0 C5.61 0 11.22 0 17 0 C17 5.94 17 11.88 17 18 C11.39 18 5.78 18 0 18 C0 12.06 0 6.12 0 0 Z " fill="#FFFFFF" transform="translate(194,17)"/>
<path d="M0 0 C5.61 0 11.22 0 17 0 C17 5.61 17 11.22 17 17 C11.39 17 5.78 17 0 17 C0 11.39 0 5.78 0 0 Z " fill="#000000" transform="translate(194,459)"/>
<path d="M0 0 C5.61 0 11.22 0 17 0 C17 5.61 17 11.22 17 17 C11.39 17 5.78 17 0 17 C0 11.39 0 5.78 0 0 Z " fill="#000000" transform="translate(300,353)"/>
<path d="M0 0 C5.61 0 11.22 0 17 0 C17 5.61 17 11.22 17 17 C11.39 17 5.78 17 0 17 C0 11.39 0 5.78 0 0 Z " fill="#000000" transform="translate(300,300)"/>
<path d="M0 0 C5.61 0 11.22 0 17 0 C17 5.61 17 11.22 17 17 C11.39 17 5.78 17 0 17 C0 11.39 0 5.78 0 0 Z " fill="#000000" transform="translate(0,194)"/>
</svg>
